<?xml version="1.0" encoding="UTF-8" standalone="no"?>
<!-- Created with Inkscape (http://www.inkscape.org/) -->

<svg
   xmlns:dc="http://purl.org/dc/elements/1.1/"
   xmlns:cc="http://creativecommons.org/ns#"
   xmlns:rdf="http://www.w3.org/1999/02/22-rdf-syntax-ns#"
   xmlns:svg="http://www.w3.org/2000/svg"
   xmlns="http://www.w3.org/2000/svg"
   xmlns:sodipodi="http://sodipodi.sourceforge.net/DTD/sodipodi-0.dtd"
   xmlns:inkscape="http://www.inkscape.org/namespaces/inkscape"
   version="1.1"
   id="svg3486"
   xml:space="preserve"
   width="800"
   height="800"
   viewBox="0 0 800 800"
   sodipodi:docname="blue-dots-3-publicdomainvectors.org.svg"
   inkscape:version="0.92.4 (5da689c313, 2019-01-14)"><metadata
     id="metadata3492"><rdf:RDF><cc:Work
         rdf:about=""><dc:format>image/svg+xml</dc:format><dc:type
           rdf:resource="http://purl.org/dc/dcmitype/StillImage" /><dc:title></dc:title></cc:Work></rdf:RDF></metadata><defs
     id="defs3490"><clipPath
       clipPathUnits="userSpaceOnUse"
       id="clipPath3502"><path
         d="M 0,600 H 600 V 0 H 0 Z"
         id="path3500"
         inkscape:connector-curvature="0" /></clipPath></defs><sodipodi:namedview
     pagecolor="#ffffff"
     bordercolor="#666666"
     borderopacity="1"
     objecttolerance="10"
     gridtolerance="10"
     guidetolerance="10"
     inkscape:pageopacity="0"
     inkscape:pageshadow="2"
     inkscape:window-width="1920"
     inkscape:window-height="1018"
     id="namedview3488"
     showgrid="false"
     inkscape:zoom="0.92761111"
     inkscape:cx="405.08475"
     inkscape:cy="427.11864"
     inkscape:window-x="-8"
     inkscape:window-y="-8"
     inkscape:window-maximized="1"
     inkscape:current-layer="g3494" /><g
     id="g3494"
     inkscape:groupmode="layer"
     inkscape:label="blue-dots-3-publicdomainvectors.org"
     transform="matrix(1.3333333,0,0,-1.3333333,0,800)"><g
       id="g3496"><g
         id="g3498"
         clip-path="url(#clipPath3502)"><path
           d="m 443.211,191.508 c -24.851,30.156 -75.449,46.463 -115.377,39.276 -39.322,-7.12 -57.873,-35.174 -40.961,-65.739 18.678,-33.643 72.456,-57.27 120.039,-49.873 48.442,7.586 63.719,42.982 36.299,76.336"
           style="fill:#72d2f6;fill-opacity:1;fill-rule:nonzero;stroke:none"
           id="path3504"
           inkscape:connector-curvature="0" /><path
           d="m 349.556,458.624 c 13.075,-11.209 46.285,-15.847 74.286,-9.75 28.292,6.181 37.376,20.244 21.128,31.034 -15.323,10.133 -47.237,13.212 -72.399,7.495 -24.922,-5.681 -35.323,-18.192 -23.015,-28.779"
           style="fill:#d8f2fd;fill-opacity:1;fill-rule:nonzero;stroke:none"
           id="path3506"
           inkscape:connector-curvature="0" /><path
           d="m 394.903,0.263 c -0.743,3.845 -2.258,7.864 -4.598,11.925 -10.859,18.771 -35.152,30.859 -55.008,28.039 -19.696,-2.87 -28.444,-19.495 -19.436,-38.247 0.278,-0.577 0.569,-1.15 0.872,-1.717 z"
           style="fill:#3ebfce;fill-opacity:1;fill-rule:nonzero;stroke:none"
           id="path3508"
           inkscape:connector-curvature="0" /><path
           d="m 577.561,312.057 c 11.327,2.127 13.794,8.808 5.706,14.919 -7.902,5.958 -22.74,8.961 -33.533,6.893 -10.741,-2.067 -13.536,-8.416 -6.159,-14.419 7.545,-6.162 22.709,-9.485 33.986,-7.393"
           style="fill:#99def9;fill-opacity:1;fill-rule:nonzero;stroke:none"
           id="path3510"
           inkscape:connector-curvature="0" /><path
           d="m 465.531,19.576 c 15.026,2.057 19.534,14.287 10.389,27.158 -8.877,12.444 -27.086,20.481 -41.182,18.418 -14.013,-2.047 -18.967,-13.338 -11.025,-25.797 8.238,-12.841 26.885,-21.83 41.818,-19.779"
           style="fill:#99def9;fill-opacity:1;fill-rule:nonzero;stroke:none"
           id="path3512"
           inkscape:connector-curvature="0" /><path
           d="m 290.829,0.263 c -0.07,2.909 -0.777,5.993 -2.185,9.124 C 282.89,22.129 267.726,30.512 254.42,28.592 241.188,26.68 234.497,15.27 239.416,2.535 c 0.301,-0.771 0.637,-1.529 1.006,-2.272 z"
           style="fill:#a2e1f9;fill-opacity:1;fill-rule:nonzero;stroke:none"
           id="path3514"
           inkscape:connector-curvature="0" /><path
           d="m 149.265,566.919 c -3.728,-0.951 -5.922,-2.624 -4.934,-3.791 1.001,-1.178 4.835,-1.354 8.628,-0.404 3.799,0.958 5.978,2.659 4.921,3.829 -1.054,1.153 -4.88,1.311 -8.615,0.366"
           style="fill:#bdeafb;fill-opacity:1;fill-rule:nonzero;stroke:none"
           id="path3516"
           inkscape:connector-curvature="0" /><path
           d="m 296.97,506.627 c 9.974,-8.468 37.303,-11.199 61.239,-5.689 24.144,5.586 33.276,16.862 20.948,24.967 -11.704,7.683 -38.232,9.365 -60.057,4.179 -21.643,-5.165 -31.586,-15.39 -22.13,-23.457"
           style="fill:#9fe0f9;fill-opacity:1;fill-rule:nonzero;stroke:none"
           id="path3518"
           inkscape:connector-curvature="0" /><path
           d="M 20.477,0.263 C 20.382,1.379 20.267,2.496 20.131,3.613 17.91,21.665 10.572,36.888 -0.127,48.326 V 0.263 Z"
           style="fill:#1cb4c9;fill-opacity:1;fill-rule:nonzero;stroke:none"
           id="path3520"
           inkscape:connector-curvature="0" /><path
           d="m 255.742,523.21 c 1.313,-1.178 5.064,-1.489 8.451,-0.68 3.388,0.808 5.015,2.414 3.654,3.581 -1.346,1.167 -5.09,1.452 -8.428,0.647 -3.337,-0.794 -4.966,-2.369 -3.677,-3.548"
           style="fill:#38bff3;fill-opacity:1;fill-rule:nonzero;stroke:none"
           id="path3522"
           inkscape:connector-curvature="0" /><path
           d="m 273.668,475.657 c 1.543,-1.557 5.874,-2.086 9.716,-1.21 3.844,0.888 5.628,2.83 4,4.36 -1.602,1.524 -5.904,2.03 -9.687,1.161 -3.775,-0.871 -5.57,-2.78 -4.029,-4.311"
           style="fill:#38bff3;fill-opacity:1;fill-rule:nonzero;stroke:none"
           id="path3524"
           inkscape:connector-curvature="0" /><path
           d="m 214.332,542.907 c 2.765,-2.651 11.486,-3.239 19.623,-1.254 8.162,1.99 12.224,5.701 9.196,8.328 -2.995,2.552 -11.651,3.016 -19.532,1.078 -7.852,-1.941 -11.985,-5.532 -9.287,-8.152"
           style="fill:#9eddc7;fill-opacity:1;fill-rule:nonzero;stroke:none"
           id="path3526"
           inkscape:connector-curvature="0" /><path
           d="m 455.815,321.465 c 19.549,3.778 25.504,15.356 13.742,25.654 -11.294,9.858 -34.48,14.545 -52.484,10.926 -17.883,-3.603 -24.547,-14.178 -14.765,-24.199 10.207,-10.427 34.097,-16.129 53.507,-12.381"
           style="fill:#8cd9d9;fill-opacity:1;fill-rule:nonzero;stroke:none"
           id="path3528"
           inkscape:connector-curvature="0" /><path
           d="m 487.152,438.15 c 12.656,2.706 16.292,9.139 8.32,14.333 -7.759,5.053 -23.447,6.894 -35.438,4.287 -11.934,-2.614 -15.89,-8.683 -8.793,-13.837 7.309,-5.271 23.313,-7.469 35.911,-4.783"
           style="fill:#7bd5f7;fill-opacity:1;fill-rule:nonzero;stroke:none"
           id="path3530"
           inkscape:connector-curvature="0" /><path
           d="m 90.238,529.367 c 9.477,2.36 15.399,6.888 13.337,10.121 -2.025,3.158 -10.904,3.806 -19.996,1.518 -9.064,-2.28 -14.998,-6.63 -13.357,-9.861 1.678,-3.305 10.575,-4.121 20.016,-1.778"
           style="fill:#c3ead7;fill-opacity:1;fill-rule:nonzero;stroke:none"
           id="path3532"
           inkscape:connector-curvature="0" /><path
           d="m 368.953,285.045 c 19.479,3.693 26.762,15.944 16.671,27.127 -9.698,10.697 -31.581,16.091 -49.524,12.546 -17.822,-3.539 -25.666,-14.689 -17.49,-25.54 8.55,-11.298 30.998,-17.789 50.343,-14.133"
           style="fill:#c3ead7;fill-opacity:1;fill-rule:nonzero;stroke:none"
           id="path3534"
           inkscape:connector-curvature="0" /><path
           d="m 472.593,396.174 c -5.628,4.39 -17.315,6.325 -26.381,4.441 -9.026,-1.886 -12.106,-6.866 -6.845,-11.297 5.367,-4.522 17.237,-6.673 26.64,-4.759 9.439,1.941 12.331,7.134 6.586,11.615"
           style="fill:#b6e6dc;fill-opacity:1;fill-rule:nonzero;stroke:none"
           id="path3536"
           inkscape:connector-curvature="0" /><path
           d="m 199.531,529.918 c 1.435,-1.526 6.12,-1.894 10.542,-0.826 4.427,1.075 6.747,3.155 5.227,4.666 -1.502,1.494 -6.175,1.834 -10.516,0.769 -4.333,-1.058 -6.677,-3.106 -5.253,-4.609"
           style="fill:#a1e1f9;fill-opacity:1;fill-rule:nonzero;stroke:none"
           id="path3538"
           inkscape:connector-curvature="0" /><path
           d="m 52.274,540.212 c 8.79,2.226 14.601,6.386 13.07,9.304 -1.497,2.859 -9.464,3.37 -17.925,1.21 -8.433,-2.156 -14.231,-6.162 -13.063,-9.084 1.202,-2.98 9.158,-3.649 17.918,-1.43"
           style="fill:#c6edfb;fill-opacity:1;fill-rule:nonzero;stroke:none"
           id="path3540"
           inkscape:connector-curvature="0" /><path
           d="m 25.827,532.45 c 0.603,-1.651 4.81,-2.048 9.477,-0.873 4.68,1.184 7.87,3.446 7.181,5.083 -0.686,1.615 -4.898,1.967 -9.484,0.805 -4.574,-1.155 -7.759,-3.379 -7.174,-5.015"
           style="fill:#55c8f4;fill-opacity:1;fill-rule:nonzero;stroke:none"
           id="path3542"
           inkscape:connector-curvature="0" /><path
           d="m 44.556,552.635 c 6.408,1.633 10.695,4.618 9.669,6.681 -1.021,2.026 -6.813,2.338 -13.045,0.739 -6.21,-1.609 -10.508,-4.504 -9.667,-6.567 0.859,-2.093 6.652,-2.493 13.043,-0.853"
           style="fill:#99def9;fill-opacity:1;fill-rule:nonzero;stroke:none"
           id="path3544"
           inkscape:connector-curvature="0" /><path
           d="m 143.903,541.619 c 5.134,1.283 8.114,3.661 6.73,5.364 -1.381,1.67 -6.492,1.991 -11.514,0.736 -5.012,-1.249 -8.005,-3.588 -6.751,-5.291 1.285,-1.71 6.409,-2.081 11.535,-0.809"
           style="fill:#edf8ec;fill-opacity:1;fill-rule:nonzero;stroke:none"
           id="path3546"
           inkscape:connector-curvature="0" /><path
           d="m 277.198,548.349 c 5.8,1.41 8.489,4.004 6.084,5.829 -2.386,1.784 -8.798,2.096 -14.455,0.711 -5.639,-1.39 -8.382,-3.928 -6.141,-5.743 2.265,-1.845 8.727,-2.207 14.512,-0.797"
           style="fill:#edf8ec;fill-opacity:1;fill-rule:nonzero;stroke:none"
           id="path3548"
           inkscape:connector-curvature="0" /><path
           d="m 113.926,534.359 c -3.938,-0.984 -6.388,-2.871 -5.496,-4.264 0.897,-1.406 4.814,-1.745 8.825,-0.76 4.012,1.001 6.452,2.913 5.489,4.311 -0.958,1.383 -4.873,1.691 -8.818,0.713"
           style="fill:#bfeafb;fill-opacity:1;fill-rule:nonzero;stroke:none"
           id="path3550"
           inkscape:connector-curvature="0" /><path
           d="m 473.298,217.803 c 33.572,5.836 42.912,27.901 22.034,48.283 -19.482,18.98 -57.762,28.809 -87.023,23.301 -28.944,-5.475 -40.281,-24.317 -24.919,-43.61 16.478,-20.646 56.735,-33.696 89.908,-27.974"
           style="fill:#46c2cb;fill-opacity:1;fill-rule:nonzero;stroke:none"
           id="path3552"
           inkscape:connector-curvature="0" /><path
           d="m 463.533,424.131 c 2.963,-2.202 9.313,-3.144 14.27,-2.098 4.967,1.048 6.459,3.65 3.39,5.841 -3.036,2.165 -9.338,3.049 -14.198,2.015 -4.85,-1.034 -6.391,-3.578 -3.462,-5.758"
           style="fill:#1db6f1;fill-opacity:1;fill-rule:nonzero;stroke:none"
           id="path3554"
           inkscape:connector-curvature="0" /><path
           d="m 174.881,549.319 c 5.197,1.296 8.083,3.673 6.489,5.327 -1.563,1.645 -6.885,1.916 -11.968,0.646 -5.072,-1.267 -7.969,-3.593 -6.517,-5.254 1.469,-1.683 6.803,-2.004 11.996,-0.719"
           style="fill:#92dcf8;fill-opacity:1;fill-rule:nonzero;stroke:none"
           id="path3556"
           inkscape:connector-curvature="0" /><path
           d="m 178.836,537.8 c 1.658,-1.83 7.339,-2.258 12.802,-0.919 5.473,1.348 8.423,3.885 6.652,5.707 -1.757,1.789 -7.425,2.157 -12.769,0.833 -5.334,-1.317 -8.307,-3.803 -6.685,-5.621"
           style="fill:#a1e1f9;fill-opacity:1;fill-rule:nonzero;stroke:none"
           id="path3558"
           inkscape:connector-curvature="0" /><path
           d="m 247.789,490.316 c 2.482,-2.533 9.735,-3.382 16.325,-1.85 6.602,1.542 9.741,4.803 7.08,7.318 -2.62,2.474 -9.837,3.221 -16.253,1.716 -6.403,-1.505 -9.593,-4.683 -7.152,-7.184"
           style="fill:#a1e1f9;fill-opacity:1;fill-rule:nonzero;stroke:none"
           id="path3560"
           inkscape:connector-curvature="0" /><path
           d="m 295.118,452.006 c 3.17,-3.181 11.709,-4.421 19.18,-2.763 7.488,1.673 10.726,5.562 7.31,8.7 -3.347,3.1 -11.821,4.205 -19.071,2.578 -7.229,-1.636 -10.544,-5.397 -7.419,-8.515"
           style="fill:#a1e1f9;fill-opacity:1;fill-rule:nonzero;stroke:none"
           id="path3562"
           inkscape:connector-curvature="0" /><path
           d="m 368.882,434.098 c 4.118,-3.608 14.026,-5.12 22.251,-3.347 8.243,1.786 11.287,6.123 6.872,9.685 -4.33,3.504 -14.121,4.858 -22.081,3.12 -7.937,-1.743 -11.078,-5.908 -7.042,-9.458"
           style="fill:#a1e1f9;fill-opacity:1;fill-rule:nonzero;stroke:none"
           id="path3564"
           inkscape:connector-curvature="0" /><path
           d="m 413.551,416.534 c 6.692,1.424 9.049,5.003 5.322,8.003 -3.665,2.966 -11.773,4.179 -18.275,2.781 -6.485,-1.394 -8.912,-4.862 -5.439,-7.85 3.532,-3.028 11.718,-4.349 18.392,-2.934"
           style="fill:#bbe9fb;fill-opacity:1;fill-rule:nonzero;stroke:none"
           id="path3566"
           inkscape:connector-curvature="0" /><path
           d="m 489.37,367.29 c 7.665,1.539 9.88,5.835 5.05,9.639 -4.756,3.724 -14.445,5.456 -21.86,3.949 -7.394,-1.512 -9.736,-5.658 -5.235,-9.422 4.599,-3.805 14.403,-5.689 22.045,-4.166"
           style="fill:#bbe9fb;fill-opacity:1;fill-rule:nonzero;stroke:none"
           id="path3568"
           inkscape:connector-curvature="0" /><path
           d="m 428.049,299.201 c 8.145,1.554 10.905,6.592 6.248,11.269 -4.571,4.594 -14.482,6.983 -22.35,5.466 -7.843,-1.524 -10.721,-6.366 -6.428,-10.986 4.371,-4.704 14.403,-7.288 22.53,-5.749"
           style="fill:#bbe9fb;fill-opacity:1;fill-rule:nonzero;stroke:none"
           id="path3570"
           inkscape:connector-curvature="0" /><path
           d="m 454.604,81.041 c 10.88,1.604 14.292,10.033 7.79,18.768 -6.376,8.505 -19.669,13.91 -30.054,12.298 -10.343,-1.593 -13.982,-9.55 -8.126,-18.084 6.018,-8.732 19.553,-14.584 30.39,-12.982"
           style="fill:#bbe9fb;fill-opacity:1;fill-rule:nonzero;stroke:none"
           id="path3572"
           inkscape:connector-curvature="0" /><path
           d="m 464.676,357.703 c 5.465,1.09 7.167,4.226 3.854,7.013 -3.268,2.762 -10.133,4.081 -15.468,3.004 -5.328,-1.074 -7.091,-4.135 -3.941,-6.898 3.172,-2.815 10.103,-4.207 15.555,-3.119"
           style="fill:#f4fbfe;fill-opacity:1;fill-rule:nonzero;stroke:none"
           id="path3574"
           inkscape:connector-curvature="0" /><path
           d="m 62.734,538.121 c -0.63,1.271 -4.049,1.543 -7.693,0.624 -3.639,-0.917 -6.089,-2.669 -5.523,-3.954 0.58,-1.293 3.993,-1.594 7.69,-0.666 3.704,0.933 6.155,2.708 5.526,3.996"
           style="fill:#5acaf5;fill-opacity:1;fill-rule:nonzero;stroke:none"
           id="path3576"
           inkscape:connector-curvature="0" /><path
           d="m -0.127,554.645 c 1.172,-0.103 2.762,0.054 4.463,0.493 3.254,0.844 5.57,2.365 5.22,3.426 -0.354,1.051 -3.2,1.222 -6.408,0.39 -1.267,-0.329 -2.394,-0.763 -3.275,-1.233 z"
           style="fill:#5acaf5;fill-opacity:1;fill-rule:nonzero;stroke:none"
           id="path3578"
           inkscape:connector-curvature="0" /><path
           d="m 579.402,348.176 c 5.981,1.158 7.301,4.546 3.027,7.603 -4.235,3.001 -12.242,4.482 -18.071,3.333 -5.815,-1.136 -7.237,-4.457 -3.152,-7.468 4.118,-3.081 12.229,-4.62 18.196,-3.468"
           style="fill:#23b8f1;fill-opacity:1;fill-rule:nonzero;stroke:none"
           id="path3580"
           inkscape:connector-curvature="0" /><path
           d="m -0.127,549.505 c 1.589,0.62 2.602,1.445 2.416,2.066 -0.16,0.518 -1.113,0.756 -2.416,0.682 z"
           style="fill:#e8f8fe;fill-opacity:1;fill-rule:nonzero;stroke:none"
           id="path3582"
           inkscape:connector-curvature="0" /><path
           d="m 35.945,562.044 c -0.33,0.755 -2.47,0.864 -4.82,0.262 -2.346,-0.607 -3.978,-1.697 -3.669,-2.453 0.31,-0.764 2.448,-0.893 4.817,-0.278 2.375,0.606 4.009,1.713 3.672,2.469"
           style="fill:#e8f8fe;fill-opacity:1;fill-rule:nonzero;stroke:none"
           id="path3584"
           inkscape:connector-curvature="0" /><path
           d="m 71.325,557.426 c -0.451,0.808 -2.803,0.94 -5.291,0.305 -2.486,-0.635 -4.133,-1.792 -3.705,-2.603 0.423,-0.82 2.779,-0.962 5.291,-0.322 2.516,0.641 4.158,1.806 3.705,2.62"
           style="fill:#e8f8fe;fill-opacity:1;fill-rule:nonzero;stroke:none"
           id="path3586"
           inkscape:connector-curvature="0" /><path
           d="m 275.875,503.5 c 9.327,2.189 13.62,6.659 9.74,10.022 -3.828,3.257 -13.997,4.133 -22.955,2.005 -8.927,-2.126 -13.339,-6.433 -9.888,-9.769 3.523,-3.407 13.808,-4.44 23.103,-2.258"
           style="fill:#c7edfb;fill-opacity:1;fill-rule:nonzero;stroke:none"
           id="path3588"
           inkscape:connector-curvature="0" /><path
           d="m 308.345,546.381 c -2.645,1.92 -9.474,2.275 -15.386,0.849 -5.894,-1.43 -8.641,-4.116 -6.145,-6.052 2.524,-1.973 9.406,-2.4 15.457,-0.947 6.067,1.467 8.76,4.209 6.074,6.15"
           style="fill:#fbfeff;fill-opacity:1;fill-rule:nonzero;stroke:none"
           id="path3590"
           inkscape:connector-curvature="0" /><path
           d="m 82.748,561.08 c -2.509,-0.639 -4.143,-1.802 -3.654,-2.604 0.471,-0.818 2.899,-0.95 5.433,-0.304 2.538,0.646 4.171,1.819 3.651,2.622 -0.507,0.802 -2.922,0.928 -5.43,0.286"
           style="fill:#2cbbf2;fill-opacity:1;fill-rule:nonzero;stroke:none"
           id="path3592"
           inkscape:connector-curvature="0" /><path
           d="M 186.406,0.263 C 181.583,4.547 175.038,6.827 168.718,5.936 164.316,5.302 160.726,3.231 158.312,0.263 Z"
           style="fill:#26b9f1;fill-opacity:1;fill-rule:nonzero;stroke:none"
           id="path3594"
           inkscape:connector-curvature="0" /><path
           d="m 31.807,543.045 c -0.337,0.855 -2.595,1.032 -5.073,0.398 -2.475,-0.632 -4.214,-1.821 -3.902,-2.682 0.317,-0.864 2.566,-1.049 5.07,-0.415 2.509,0.639 4.243,1.839 3.905,2.699"
           style="fill:#38bff3;fill-opacity:1;fill-rule:nonzero;stroke:none"
           id="path3596"
           inkscape:connector-curvature="0" /><path
           d="m 171.072,102 c 1.921,-5.531 8.712,-9.187 15.282,-8.146 6.591,1.035 10.147,6.359 8.056,11.898 -2.085,5.441 -8.844,8.904 -15.244,7.869 -6.388,-1.033 -9.984,-6.17 -8.094,-11.621"
           style="fill:#63cdf5;fill-opacity:1;fill-rule:nonzero;stroke:none"
           id="path3598"
           inkscape:connector-curvature="0" /><path
           d="m 66.746,542.789 c 1.021,-1.967 6.492,-2.395 12.312,-0.927 5.836,1.468 9.566,4.218 8.405,6.163 -1.155,1.91 -6.621,2.275 -12.31,0.829 -5.673,-1.437 -9.411,-4.123 -8.407,-6.065"
           style="fill:#f0fafe;fill-opacity:1;fill-rule:nonzero;stroke:none"
           id="path3600"
           inkscape:connector-curvature="0" /><path
           d="m 97.513,556.289 c 2.567,-3.905 14.484,-4.64 26.807,-1.533 12.387,3.13 19.684,8.727 16.486,12.523 -3.134,3.667 -14.989,4.133 -26.731,1.135 -11.684,-2.982 -19.04,-8.317 -16.562,-12.125"
           style="fill:#51c7f4;fill-opacity:1;fill-rule:nonzero;stroke:none"
           id="path3602"
           inkscape:connector-curvature="0" /><path
           d="m 21.284,549.762 c -2.412,-0.62 -4.105,-1.764 -3.827,-2.586 0.294,-0.822 2.468,-0.986 4.909,-0.366 2.44,0.627 4.147,1.786 3.828,2.603 -0.309,0.816 -2.496,0.963 -4.91,0.349"
           style="fill:#a1e0e1;fill-opacity:1;fill-rule:nonzero;stroke:none"
           id="path3604"
           inkscape:connector-curvature="0" /><path
           d="m 1.247,535.941 c 0.451,-1.574 4.384,-1.943 8.87,-0.802 4.494,1.138 7.654,3.313 7.135,4.878 -0.535,1.541 -4.473,1.865 -8.877,0.741 -4.396,-1.126 -7.561,-3.255 -7.128,-4.817"
           style="fill:#23b7d9;fill-opacity:1;fill-rule:nonzero;stroke:none"
           id="path3606"
           inkscape:connector-curvature="0" /><path
           d="m 530.875,390.705 c 18.492,3.769 23.068,13.646 10.649,21.961 -11.961,7.964 -34.953,11.243 -52.062,7.652 -17.001,-3.584 -22.322,-12.699 -11.725,-20.843 11.034,-8.443 34.763,-12.49 53.138,-8.77"
           style="fill:#24b9f1;fill-opacity:1;fill-rule:nonzero;stroke:none"
           id="path3608"
           inkscape:connector-curvature="0" /><path
           d="m 424.201,364.293 c 11.575,2.348 15.488,8.936 8.9,14.688 -6.416,5.611 -20.285,8.163 -31.302,5.888 -10.971,-2.279 -15.131,-8.527 -9.257,-14.19 6.008,-5.824 20.128,-8.709 31.659,-6.386"
           style="fill:#d9f3fd;fill-opacity:1;fill-rule:nonzero;stroke:none"
           id="path3610"
           inkscape:connector-curvature="0" /><path
           d="m 549.431,173.874 c 10.318,1.675 12.799,8.841 5.698,15.974 -6.953,6.966 -20.314,11.089 -30.19,9.452 -9.832,-1.671 -12.568,-8.456 -6.063,-15.45 6.646,-7.156 20.277,-11.647 30.555,-9.976"
           style="fill:#1bb6f1;fill-opacity:1;fill-rule:nonzero;stroke:none"
           id="path3612"
           inkscape:connector-curvature="0" /><path
           d="m 137.165,525.273 c 6.518,1.605 10.339,4.72 8.608,6.986 -1.713,2.224 -8.134,2.73 -14.472,1.162 -6.32,-1.572 -10.164,-4.602 -8.636,-6.862 1.552,-2.295 7.996,-2.879 14.5,-1.286"
           style="fill:#70d1f6;fill-opacity:1;fill-rule:nonzero;stroke:none"
           id="path3614"
           inkscape:connector-curvature="0" /><path
           d="m 599.737,169.903 c -8.14,5.719 -20.095,8.888 -29.039,7.432 -10.358,-1.678 -12.88,-8.966 -5.552,-16.526 7.5,-7.743 22.264,-12.705 33.118,-11.008 0.51,0.08 1.002,0.173 1.473,0.278 z"
           style="fill:#6cced6;fill-opacity:1;fill-rule:nonzero;stroke:none"
           id="path3616"
           inkscape:connector-curvature="0" /><path
           d="m 172.223,564.188 c 1.482,-1.541 6.696,-1.775 11.729,-0.519 5.045,1.266 7.803,3.515 6.208,5.034 -1.571,1.506 -6.767,1.698 -11.702,0.455 -4.92,-1.247 -7.698,-3.441 -6.235,-4.97"
           style="fill:#13b3f0;fill-opacity:1;fill-rule:nonzero;stroke:none"
           id="path3618"
           inkscape:connector-curvature="0" /><path
           d="m 366.125,368.651 c 9.016,1.861 12.508,7.024 7.916,11.559 -4.511,4.439 -15.016,6.468 -23.69,4.659 -8.649,-1.811 -12.28,-6.776 -8.103,-11.247 4.244,-4.574 14.882,-6.807 23.877,-4.971"
           style="fill:#79d4f7;fill-opacity:1;fill-rule:nonzero;stroke:none"
           id="path3620"
           inkscape:connector-curvature="0" /><path
           d="m 339.552,478.829 c 7.204,1.641 10.169,5.204 6.696,7.977 -3.415,2.728 -11.709,3.59 -18.69,1.989 -6.966,-1.602 -9.996,-5.046 -6.809,-7.818 3.262,-2.79 11.619,-3.78 18.803,-2.148"
           style="fill:#79d4f7;fill-opacity:1;fill-rule:nonzero;stroke:none"
           id="path3622"
           inkscape:connector-curvature="0" /><path
           d="m 186.932,512.976 c 2.646,-3.104 11.614,-3.997 20.172,-1.954 8.579,2.061 13.043,6.175 10.104,9.246 -2.911,2.983 -11.813,3.746 -20.079,1.739 -8.243,-1.993 -12.774,-5.974 -10.197,-9.031"
           style="fill:#70d1f6;fill-opacity:1;fill-rule:nonzero;stroke:none"
           id="path3624"
           inkscape:connector-curvature="0" /><path
           d="m 207.024,58.746 c -4.132,11.02 -17.048,18.109 -29.128,16.236 -12.024,-1.869 -18.89,-11.945 -15.457,-22.974 3.573,-11.344 16.59,-19.188 29.293,-17.319 12.761,1.881 19.535,12.704 15.292,24.057"
           style="fill:#0bb1f0;fill-opacity:1;fill-rule:nonzero;stroke:none"
           id="path3626"
           inkscape:connector-curvature="0" /><path
           d="m 380.279,497.04 c 6.306,-4.493 21.279,-5.972 33.635,-3.179 12.405,2.824 16.683,8.69 9.753,13.117 -6.759,4.282 -21.474,5.464 -33.241,2.751 -11.714,-2.71 -16.25,-8.273 -10.147,-12.689"
           style="fill:#30bcf2;fill-opacity:1;fill-rule:nonzero;stroke:none"
           id="path3628"
           inkscape:connector-curvature="0" /><path
           d="m 149.612,521.778 c 2.496,-3.305 11.94,-4.204 21.25,-1.94 9.343,2.274 14.504,6.73 11.648,9.98 -2.81,3.165 -12.198,3.887 -21.174,1.689 -8.939,-2.203 -14.147,-6.484 -11.724,-9.729"
           style="fill:#30bcf2;fill-opacity:1;fill-rule:nonzero;stroke:none"
           id="path3630"
           inkscape:connector-curvature="0" /><path
           d="m 280.2,488.854 c 1.549,-1.447 5.788,-1.931 9.541,-1.061 3.755,0.872 5.479,2.735 3.864,4.17 -1.588,1.432 -5.818,1.877 -9.512,1.017 -3.693,-0.857 -5.42,-2.682 -3.893,-4.126"
           style="fill:#fafdff;fill-opacity:1;fill-rule:nonzero;stroke:none"
           id="path3632"
           inkscape:connector-curvature="0" /><path
           d="m 589.382,260.277 c 6.777,1.2 8.22,5.462 3.308,9.551 -4.855,4.008 -13.959,6.233 -20.543,5.053 -6.565,-1.188 -8.136,-5.318 -3.481,-9.351 4.726,-4.087 13.955,-6.457 20.716,-5.253"
           style="fill:#61ccf5;fill-opacity:1;fill-rule:nonzero;stroke:none"
           id="path3634"
           inkscape:connector-curvature="0" /><path
           d="m 195.977,563.136 c -0.913,0.874 -3.898,1.006 -6.719,0.298 -2.813,-0.706 -4.37,-1.977 -3.489,-2.852 0.884,-0.886 3.877,-1.037 6.726,-0.32 2.858,0.707 4.399,1.991 3.482,2.874"
           style="fill:#3dc1f3;fill-opacity:1;fill-rule:nonzero;stroke:none"
           id="path3636"
           inkscape:connector-curvature="0" /><path
           d="m 436.669,429.314 c 6.654,1.428 8.871,4.904 5.015,7.79 -3.794,2.848 -11.984,3.96 -18.451,2.563 -6.451,-1.399 -8.754,-4.778 -5.141,-7.642 3.67,-2.906 11.935,-4.129 18.577,-2.711"
           style="fill:#e4f6fd;fill-opacity:1;fill-rule:nonzero;stroke:none"
           id="path3638"
           inkscape:connector-curvature="0" /><path
           d="m 304.709,480.424 c 5.42,1.242 7.815,3.937 5.408,6.044 -2.375,2.083 -8.502,2.74 -13.796,1.522 -5.28,-1.224 -7.717,-3.857 -5.46,-5.953 2.273,-2.132 8.441,-2.849 13.848,-1.613"
           style="fill:#eaf8fe;fill-opacity:1;fill-rule:nonzero;stroke:none"
           id="path3640"
           inkscape:connector-curvature="0" /><path
           d="m 415.834,392.594 c 6.986,1.456 9.429,5.31 5.524,8.623 -3.838,3.269 -12.305,4.692 -19.086,3.27 -6.76,-1.427 -9.282,-5.153 -5.651,-8.447 3.695,-3.339 12.244,-4.892 19.213,-3.446"
           style="fill:#eaf8fe;fill-opacity:1;fill-rule:nonzero;stroke:none"
           id="path3642"
           inkscape:connector-curvature="0" /><path
           d="m 178.076,505.125 c 4.551,1.094 7.07,3.331 5.663,5.019 -1.396,1.664 -6.066,2.129 -10.531,1.056 -4.459,-1.076 -6.983,-3.269 -5.686,-4.955 0.102,-0.122 0.246,-0.235 0.38,-0.345 1.589,-0.43 3.17,-0.872 4.746,-1.324 1.675,-0.066 3.561,0.101 5.428,0.549"
           style="fill:#5ecbf5;fill-opacity:1;fill-rule:nonzero;stroke:none"
           id="path3644"
           inkscape:connector-curvature="0" /><path
           d="m -0.127,522.647 c 0.052,0.013 0.104,0.026 0.156,0.039 6.664,1.683 11.405,4.969 10.678,7.369 -0.649,2.093 -5.267,2.75 -10.834,1.72 z"
           style="fill:#eaf8fe;fill-opacity:1;fill-rule:nonzero;stroke:none"
           id="path3646"
           inkscape:connector-curvature="0" /><path
           d="m 129.502,42.348 c -1.672,6.234 -8.316,10.351 -14.963,9.324 -6.626,-1.016 -10.751,-6.733 -9.289,-12.965 1.5,-6.334 8.151,-10.676 14.978,-9.66 6.849,1.017 10.967,6.965 9.274,13.301"
           style="fill:#0bb1f0;fill-opacity:1;fill-rule:nonzero;stroke:none"
           id="path3648"
           inkscape:connector-curvature="0" /><path
           d="m 258.431,152.553 c -5.415,10.74 -20.462,17.236 -33.983,14.92 -13.448,-2.309 -20.603,-12.534 -16.057,-23.315 4.715,-11.127 19.962,-18.422 34.263,-16.101 14.378,2.361 21.336,13.384 15.777,24.496"
           style="fill:#5fccf5;fill-opacity:1;fill-rule:nonzero;stroke:none"
           id="path3650"
           inkscape:connector-curvature="0" /><path
           d="m 491.742,285.035 c 7.1,-6.738 22.035,-10.578 33.494,-8.493 11.507,2.101 14.485,9.266 6.822,15.954 -7.468,6.54 -22.115,9.98 -33.072,7.937 -10.906,-2.059 -14.172,-8.822 -7.244,-15.398"
           style="fill:#22b6c8;fill-opacity:1;fill-rule:nonzero;stroke:none"
           id="path3652"
           inkscape:connector-curvature="0" /><path
           d="m 218.369,73.719 c 4.366,-10.975 18.106,-18.473 30.892,-16.563 12.852,1.922 19.017,12.477 13.977,23.459 -4.919,10.658 -18.5,17.432 -30.658,15.522 -12.102,-1.92 -18.431,-11.746 -14.211,-22.418"
           style="fill:#22b6c8;fill-opacity:1;fill-rule:nonzero;stroke:none"
           id="path3654"
           inkscape:connector-curvature="0" /><path
           d="M 360.192,107.881 C 341.68,104.967 333.883,90.387 342.86,74.393 c 9.397,-16.698 33.216,-28.268 53.381,-25.397 20.313,2.951 27.451,19.178 16.375,35.871 -10.605,15.973 -33.772,25.901 -52.424,23.014"
           style="fill:#33bcca;fill-opacity:1;fill-rule:nonzero;stroke:none"
           id="path3656"
           inkscape:connector-curvature="0" /><path
           d="m 185.359,553.172 c 1.986,-2.06 8.765,-2.447 15.229,-0.841 6.479,1.604 9.916,4.532 7.744,6.557 -2.139,1.994 -8.879,2.3 -15.182,0.731 -6.283,-1.57 -9.755,-4.424 -7.791,-6.447"
           style="fill:#81d6f7;fill-opacity:1;fill-rule:nonzero;stroke:none"
           id="path3658"
           inkscape:connector-curvature="0" /><path
           d="m 135.954,557.689 c -2.699,-0.678 -4.31,-1.914 -3.637,-2.787 0.682,-0.879 3.416,-1.031 6.148,-0.347 2.731,0.685 4.346,1.941 3.626,2.807 -0.709,0.867 -3.441,1.01 -6.137,0.327"
           style="fill:#96ddf8;fill-opacity:1;fill-rule:nonzero;stroke:none"
           id="path3660"
           inkscape:connector-curvature="0" /><path
           d="m 236.175,500.673 c 1.272,-1.326 5.108,-1.721 8.618,-0.899 3.51,0.831 5.259,2.557 3.918,3.86 -1.315,1.306 -5.143,1.677 -8.598,0.862 -3.454,-0.821 -5.215,-2.521 -3.938,-3.823"
           style="fill:#55c8f4;fill-opacity:1;fill-rule:nonzero;stroke:none"
           id="path3662"
           inkscape:connector-curvature="0" /><path
           d="m 305.735,471.474 c -1.74,1.588 -6.231,2.154 -10.133,1.264 -3.894,-0.891 -5.684,-2.87 -4.024,-4.483 1.675,-1.626 6.2,-2.213 10.164,-1.316 3.971,0.902 5.734,2.915 3.993,4.535"
           style="fill:#7ad4f7;fill-opacity:1;fill-rule:nonzero;stroke:none"
           id="path3664"
           inkscape:connector-curvature="0" /><path
           d="m 251.544,544.035 c -6.969,-1.703 -10.463,-4.912 -7.843,-7.265 2.668,-2.394 10.567,-2.948 17.758,-1.21 7.207,1.746 10.647,5.053 7.754,7.404 -2.83,2.328 -10.684,2.769 -17.669,1.071"
           style="fill:#f2f9d9;fill-opacity:1;fill-rule:nonzero;stroke:none"
           id="path3666"
           inkscape:connector-curvature="0" /><path
           d="m 277.68,129.654 c -17.208,-2.818 -25.645,-16.293 -18.857,-30.894 7.091,-15.207 27.763,-25.576 46.396,-22.776 18.756,2.871 26.771,17.756 18.234,32.944 -8.203,14.564 -28.443,23.523 -45.773,20.726"
           style="fill:#8ad9f8;fill-opacity:1;fill-rule:nonzero;stroke:none"
           id="path3668"
           inkscape:connector-curvature="0" /><path
           d="m 343.091,236.83 c 15.676,2.844 21.927,13.352 14.241,23.334 -7.442,9.627 -24.987,14.879 -39.651,12.115 -14.578,-2.758 -21.169,-12.465 -14.741,-22.183 6.672,-10.039 24.568,-16.084 40.151,-13.266"
           style="fill:#7ad4f7;fill-opacity:1;fill-rule:nonzero;stroke:none"
           id="path3670"
           inkscape:connector-curvature="0" /><path
           d="M 68.226,43.324 C 85.246,45.943 96.056,60.539 92.587,75.66 89.225,90.191 73.919,99.332 58.087,96.758 42.361,94.178 31.556,80.91 33.723,66.363 36.011,51.242 51.314,40.773 68.226,43.324"
           style="fill:#7ad4f7;fill-opacity:1;fill-rule:nonzero;stroke:none"
           id="path3672"
           inkscape:connector-curvature="0" /><path
           d="m 360.084,439.338 c -5.625,4.949 -18.918,6.859 -29.999,4.411 -11.038,-2.442 -15.866,-8.301 -10.821,-13.349 5.203,-5.147 18.686,-7.375 30.292,-4.865 11.651,2.528 16.278,8.701 10.528,13.803"
           style="fill:#c7edfb;fill-opacity:1;fill-rule:nonzero;stroke:none"
           id="path3674"
           inkscape:connector-curvature="0" /><path
           d="m 377.786,356.899 c -6.818,6.976 -22.476,10.297 -35.382,7.652 -12.844,-2.643 -18.358,-10.241 -12.33,-17.32 6.229,-7.28 22.183,-11.104 35.8,-8.389 13.681,2.738 18.913,10.843 11.912,18.057"
           style="fill:#c7edfb;fill-opacity:1;fill-rule:nonzero;stroke:none"
           id="path3676"
           inkscape:connector-curvature="0" /><path
           d="m 78.569,552.18 c 0.489,-0.847 2.947,-1.005 5.535,-0.349 2.586,0.657 4.236,1.856 3.722,2.701 -0.514,0.837 -2.972,0.984 -5.532,0.331 -2.557,-0.653 -4.211,-1.84 -3.725,-2.683"
           style="fill:#b0e6fa;fill-opacity:1;fill-rule:nonzero;stroke:none"
           id="path3678"
           inkscape:connector-curvature="0" /><path
           d="m 241.892,529.327 c -1.688,1.569 -6.645,1.934 -11.155,0.842 -4.498,-1.093 -6.827,-3.217 -5.222,-4.797 1.619,-1.6 6.59,-2.004 11.184,-0.904 4.6,1.111 6.904,3.272 5.193,4.859"
           style="fill:#15b3de;fill-opacity:1;fill-rule:nonzero;stroke:none"
           id="path3680"
           inkscape:connector-curvature="0" /><path
           d="m 423.568,413.644 c 2.729,-2.258 8.853,-3.237 13.754,-2.211 4.908,1.035 6.543,3.668 3.705,5.904 -2.81,2.211 -8.884,3.143 -13.689,2.125 -4.797,-1.019 -6.477,-3.593 -3.77,-5.818"
           style="fill:#b8e8fb;fill-opacity:1;fill-rule:nonzero;stroke:none"
           id="path3682"
           inkscape:connector-curvature="0" /><path
           d="m 330.759,400.889 c 10.163,2.171 14.38,7.778 9.557,12.532 -4.718,4.638 -16.219,6.587 -25.951,4.485 -9.689,-2.103 -14.057,-7.466 -9.767,-12.159 4.388,-4.803 16.037,-7.008 26.161,-4.858"
           style="fill:#c7ece5;fill-opacity:1;fill-rule:nonzero;stroke:none"
           id="path3684"
           inkscape:connector-curvature="0" /><path
           d="m 519.755,120.807 c 16.975,2.599 21.339,15.035 10.121,27.535 -10.828,12.041 -31.913,19.306 -47.71,16.738 -15.697,-2.57 -20.682,-13.965 -11.01,-26.051 10.042,-12.521 31.74,-20.818 48.599,-18.222"
           style="fill:#c7ece5;fill-opacity:1;fill-rule:nonzero;stroke:none"
           id="path3686"
           inkscape:connector-curvature="0" /><path
           d="m 62.887,562.175 c -2.441,-0.631 -4.07,-1.757 -3.655,-2.538 0.406,-0.794 2.712,-0.915 5.183,-0.289 2.467,0.634 4.089,1.768 3.653,2.555 -0.436,0.781 -2.736,0.894 -5.181,0.272"
           style="fill:#4fc6f4;fill-opacity:1;fill-rule:nonzero;stroke:none"
           id="path3688"
           inkscape:connector-curvature="0" /><path
           d="m 511.791,319.333 c 3.908,-3.345 11.897,-5.145 17.953,-4.004 6.071,1.151 7.648,4.769 3.591,8.111 -4.007,3.298 -11.923,4.994 -17.837,3.854 -5.898,-1.128 -7.556,-4.648 -3.707,-7.961"
           style="fill:#d7f0d5;fill-opacity:1;fill-rule:nonzero;stroke:none"
           id="path3690"
           inkscape:connector-curvature="0" /><path
           d="m 511.345,357.99 c -3.636,2.89 -10.964,4.29 -16.512,3.184 -5.531,-1.1 -7.184,-4.283 -3.679,-7.177 3.54,-2.944 10.939,-4.424 16.608,-3.309 5.686,1.122 7.262,4.377 3.583,7.302"
           style="fill:#b8e8fb;fill-opacity:1;fill-rule:nonzero;stroke:none"
           id="path3692"
           inkscape:connector-curvature="0" /><path
           d="m 109.57,516.61 c 1.343,-0.14 2.688,-0.289 4.026,-0.444 -0.871,0.458 -2.351,0.625 -4.026,0.444"
           style="fill:#d8f2fd;fill-opacity:1;fill-rule:nonzero;stroke:none"
           id="path3694"
           inkscape:connector-curvature="0" /><path
           d="m 355.619,392.185 c 4.777,1.008 6.69,3.679 4.316,5.989 -2.347,2.285 -7.95,3.303 -12.627,2.315 -4.665,-0.994 -6.619,-3.609 -4.367,-5.903 2.272,-2.325 7.914,-3.398 12.678,-2.401"
           style="fill:#aae4fa;fill-opacity:1;fill-rule:nonzero;stroke:none"
           id="path3696"
           inkscape:connector-curvature="0" /><path
           d="m 345.524,448.289 c 4.275,0.948 6.021,3.159 3.948,4.971 -2.053,1.797 -7.05,2.466 -11.245,1.53 -4.187,-0.932 -5.958,-3.105 -3.985,-4.912 1.999,-1.815 7.017,-2.531 11.282,-1.589"
           style="fill:#aae4fa;fill-opacity:1;fill-rule:nonzero;stroke:none"
           id="path3698"
           inkscape:connector-curvature="0" /><path
           d="m 518.876,381.002 c -7.633,-1.542 -9.771,-5.79 -4.769,-9.644 5.106,-3.9 15.533,-5.835 23.429,-4.269 7.919,1.581 9.923,5.989 4.562,9.873 -5.274,3.813 -15.567,5.581 -23.222,4.04"
           style="fill:#f4fbfe;fill-opacity:1;fill-rule:nonzero;stroke:none"
           id="path3700"
           inkscape:connector-curvature="0" /><path
           d="m 113.322,544.398 c 2.738,0.684 4.415,1.968 3.771,2.875 -0.638,0.901 -3.304,1.079 -6.008,0.396 -2.698,-0.683 -4.378,-1.944 -3.773,-2.851 0.601,-0.919 3.279,-1.11 6.01,-0.42"
           style="fill:#23b8f1;fill-opacity:1;fill-rule:nonzero;stroke:none"
           id="path3702"
           inkscape:connector-curvature="0" /><path
           d="m -0.127,539.274 c 0.426,0.092 0.857,0.193 1.294,0.304 6.334,1.619 10.845,4.66 10.141,6.812 -0.654,2.017 -5.649,2.48 -11.435,1.159 z"
           style="fill:#81d5dd;fill-opacity:1;fill-rule:nonzero;stroke:none"
           id="path3704"
           inkscape:connector-curvature="0" /><path
           d="m 124.204,548.674 c -3.824,-0.963 -6.161,-2.746 -5.256,-4.033 0.917,-1.295 4.759,-1.566 8.652,-0.595 3.894,0.977 6.218,2.784 5.244,4.075 -0.977,1.267 -4.809,1.511 -8.64,0.553"
           style="fill:#2ab9cd;fill-opacity:1;fill-rule:nonzero;stroke:none"
           id="path3706"
           inkscape:connector-curvature="0" /><path
           d="m 568.402,299.222 c -4.452,3.624 -12.973,5.557 -19.222,4.393 -6.237,-1.158 -7.833,-4.976 -3.547,-8.607 4.33,-3.695 12.958,-5.743 19.366,-4.565 6.424,1.18 7.919,5.108 3.403,8.779"
           style="fill:#f0fafe;fill-opacity:1;fill-rule:nonzero;stroke:none"
           id="path3708"
           inkscape:connector-curvature="0" /><path
           d="m 311.748,495.516 c -3.763,-0.875 -5.435,-2.712 -3.769,-4.169 1.689,-1.455 6.104,-1.927 9.932,-1.053 3.829,0.888 5.481,2.753 3.737,4.213 -1.741,1.432 -6.133,1.88 -9.9,1.009"
           style="fill:#2fbcf2;fill-opacity:1;fill-rule:nonzero;stroke:none"
           id="path3710"
           inkscape:connector-curvature="0" /><path
           d="m 170.834,556.446 c 2.82,0.701 4.399,1.982 3.558,2.869 -0.834,0.879 -3.725,1.016 -6.51,0.32 -2.78,-0.699 -4.359,-1.953 -3.563,-2.845 0.811,-0.886 3.702,-1.05 6.515,-0.344"
           style="fill:#65cdf5;fill-opacity:1;fill-rule:nonzero;stroke:none"
           id="path3712"
           inkscape:connector-curvature="0" /><path
           d="m 45.875,528.637 c 0.401,-0.959 2.867,-1.192 5.537,-0.524 2.674,0.675 4.463,1.971 4.03,2.924 -0.434,0.944 -2.897,1.173 -5.537,0.5 -2.643,-0.656 -4.434,-1.951 -4.03,-2.9"
           style="fill:#e8f8fe;fill-opacity:1;fill-rule:nonzero;stroke:none"
           id="path3714"
           inkscape:connector-curvature="0" /><path
           d="m 338.089,468.468 c -1.923,1.663 -6.687,2.234 -10.723,1.327 -4.024,-0.917 -5.773,-2.962 -3.916,-4.628 1.875,-1.677 6.662,-2.3 10.759,-1.381 4.107,0.93 5.831,3.014 3.88,4.682"
           style="fill:#a2e1f9;fill-opacity:1;fill-rule:nonzero;stroke:none"
           id="path3716"
           inkscape:connector-curvature="0" /><path
           d="m 382.52,404.544 c -2.463,2.266 -8.193,3.244 -12.898,2.248 -4.692,-1.003 -6.583,-3.611 -4.196,-5.862 2.384,-2.305 8.162,-3.34 12.957,-2.331 4.801,1.012 6.638,3.67 4.137,5.945"
           style="fill:#a2e1f9;fill-opacity:1;fill-rule:nonzero;stroke:none"
           id="path3718"
           inkscape:connector-curvature="0" /><path
           d="m 289.323,532.537 c -1.431,1.136 -5.256,1.404 -8.613,0.594 -3.353,-0.798 -4.932,-2.36 -3.556,-3.513 1.395,-1.157 5.231,-1.447 8.631,-0.63 3.411,0.816 4.972,2.387 3.538,3.549"
           style="fill:#6ed0f6;fill-opacity:1;fill-rule:nonzero;stroke:none"
           id="path3720"
           inkscape:connector-curvature="0" /><path
           d="m 294.822,501.116 c -1.567,1.365 -5.718,1.762 -9.345,0.917 -3.622,-0.849 -5.312,-2.61 -3.809,-3.99 1.53,-1.376 5.688,-1.817 9.367,-0.96 3.688,0.859 5.367,2.655 3.787,4.033"
           style="fill:#6ed0f6;fill-opacity:1;fill-rule:nonzero;stroke:none"
           id="path3722"
           inkscape:connector-curvature="0" /><path
           d="m 478.675,307.144 c -3.648,3.395 -11.213,5.184 -17.057,4.069 -5.833,-1.118 -7.723,-4.695 -4.231,-8.106 3.542,-3.448 11.182,-5.347 17.17,-4.224 5.995,1.129 7.817,4.826 4.118,8.261"
           style="fill:#3ac0f3;fill-opacity:1;fill-rule:nonzero;stroke:none"
           id="path3724"
           inkscape:connector-curvature="0" /><path
           d="m 58.303,28.021 c -1.098,6.284 -7.157,10.45 -13.643,9.471 -6.474,-0.988 -10.924,-6.724 -10.028,-13.01 0.921,-6.378 6.979,-10.8 13.643,-9.8 6.68,0.978 11.133,6.953 10.028,13.339"
           style="fill:#3ac0f3;fill-opacity:1;fill-rule:nonzero;stroke:none"
           id="path3726"
           inkscape:connector-curvature="0" /><path
           d="m 517.829,69.211 c -5.282,6.701 -15.824,11.053 -23.768,9.875 -7.929,-1.16 -10.316,-7.375 -5.309,-14.074 5.091,-6.823 15.779,-11.426 23.994,-10.276 8.233,1.186 10.463,7.651 5.083,14.475"
           style="fill:#3ac0f3;fill-opacity:1;fill-rule:nonzero;stroke:none"
           id="path3728"
           inkscape:connector-curvature="0" /><path
           d="m 135.427,74.998 c -2.311,8.041 -11.279,13.209 -20.201,11.789 -8.892,-1.418 -14.454,-8.865 -12.508,-16.908 1.994,-8.221 10.99,-13.795 20.246,-12.373 9.288,1.43 14.817,9.271 12.463,17.492"
           style="fill:#def4fd;fill-opacity:1;fill-rule:nonzero;stroke:none"
           id="path3730"
           inkscape:connector-curvature="0" /><path
           d="m 317.954,530.938 c 6.295,1.508 9.011,4.395 6.115,6.46 -2.848,2.048 -10.012,2.476 -16.139,1.01 -6.115,-1.471 -8.879,-4.28 -6.198,-6.354 2.716,-2.107 9.938,-2.611 16.222,-1.116"
           style="fill:#3ec1f3;fill-opacity:1;fill-rule:nonzero;stroke:none"
           id="path3732"
           inkscape:connector-curvature="0" /><path
           d="m 119.529,0.263 c -0.08,0.41 -0.17,0.821 -0.269,1.233 -3.624,14.908 -18.371,24.688 -33.261,22.49 C 73.449,22.121 64.519,12.292 63.668,0.263 Z"
           style="fill:#edf9fe;fill-opacity:1;fill-rule:nonzero;stroke:none"
           id="path3734"
           inkscape:connector-curvature="0" /><path
           d="m 76.684,567.268 c -0.459,0.757 -2.767,0.859 -5.195,0.236 -2.422,-0.624 -4.011,-1.727 -3.585,-2.493 0.438,-0.765 2.742,-0.887 5.189,-0.255 2.456,0.627 4.05,1.749 3.591,2.512"
           style="fill:#4dc4ca;fill-opacity:1;fill-rule:nonzero;stroke:none"
           id="path3736"
           inkscape:connector-curvature="0" /><path
           d="m 302.649,35.529 c 7.518,1.082 10.838,7.354 7.497,14.008 -3.286,6.537 -11.708,10.834 -18.986,9.742 -7.263,-1.07 -10.658,-7.097 -7.612,-13.634 3.097,-6.655 11.598,-11.196 19.101,-10.116"
           style="fill:#77d3f6;fill-opacity:1;fill-rule:nonzero;stroke:none"
           id="path3738"
           inkscape:connector-curvature="0" /><path
           d="m 227.21,564.835 c -4.093,-1.022 -6.211,-2.837 -4.774,-4.114 1.46,-1.281 5.962,-1.503 10.128,-0.463 4.176,1.028 6.282,2.89 4.749,4.16 -1.513,1.262 -6.002,1.433 -10.103,0.417"
           style="fill:#13b1cb;fill-opacity:1;fill-rule:nonzero;stroke:none"
           id="path3740"
           inkscape:connector-curvature="0" /><path
           d="m 14.295,556.79 c -3.272,-0.845 -5.601,-2.386 -5.248,-3.477 0.363,-1.097 3.302,-1.302 6.621,-0.446 3.325,0.853 5.659,2.417 5.253,3.508 -0.408,1.079 -3.352,1.266 -6.626,0.415"
           style="fill:#eefafe;fill-opacity:1;fill-rule:nonzero;stroke:none"
           id="path3742"
           inkscape:connector-curvature="0" /><path
           d="m 91.269,567.994 c -3.471,-0.89 -5.678,-2.46 -5.002,-3.562 0.71,-1.094 4.075,-1.262 7.6,-0.369 3.529,0.905 5.747,2.499 5.002,3.596 -0.763,1.07 -4.123,1.221 -7.6,0.335"
           style="fill:#eefafe;fill-opacity:1;fill-rule:nonzero;stroke:none"
           id="path3744"
           inkscape:connector-curvature="0" /><path
           d="m 159.363,540.016 c -4.073,-1.009 -6.427,-2.921 -5.307,-4.329 1.143,-1.413 5.367,-1.739 9.515,-0.723 4.154,1.031 6.511,2.978 5.294,4.379 -1.204,1.387 -5.423,1.68 -9.502,0.673"
           style="fill:#eefafe;fill-opacity:1;fill-rule:nonzero;stroke:none"
           id="path3746"
           inkscape:connector-curvature="0" /><path
           d="m 247.588,559.518 c -4.239,-1.055 -6.365,-2.941 -4.778,-4.289 1.605,-1.355 6.352,-1.594 10.677,-0.537 4.328,1.07 6.436,2.995 4.754,4.339 -1.67,1.329 -6.401,1.533 -10.653,0.487"
           style="fill:#eefafe;fill-opacity:1;fill-rule:nonzero;stroke:none"
           id="path3748"
           inkscape:connector-curvature="0" /><path
           d="m 239.667,522.141 c -4.63,-1.116 -6.983,-3.325 -5.294,-4.995 1.714,-1.689 6.872,-2.158 11.599,-1.024 4.735,1.126 7.077,3.393 5.262,5.061 -1.786,1.658 -6.927,2.073 -11.567,0.958"
           style="fill:#eefafe;fill-opacity:1;fill-rule:nonzero;stroke:none"
           id="path3750"
           inkscape:connector-curvature="0" /><path
           d="m 375.002,415.159 c 2.399,-2.173 8.096,-3.128 12.807,-2.127 4.712,1.005 6.474,3.554 3.981,5.715 -2.471,2.14 -8.13,3.037 -12.747,2.049 -4.614,-0.988 -6.416,-3.488 -4.041,-5.637"
           style="fill:#75d2ef;fill-opacity:1;fill-rule:nonzero;stroke:none"
           id="path3752"
           inkscape:connector-curvature="0" /><path
           d="m 189.591,570.856 c -1.111,0.059 -2.215,0.115 -3.323,0.175 0.92,-0.187 2.061,-0.24 3.323,-0.175"
           style="fill:#f2fbfe;fill-opacity:1;fill-rule:nonzero;stroke:none"
           id="path3754"
           inkscape:connector-curvature="0" /><path
           d="m 209.627,568.539 c -2.841,-0.711 -4.346,-1.966 -3.401,-2.839 0.953,-0.874 4.019,-1.002 6.894,-0.283 2.879,0.719 4.388,1.996 3.394,2.859 -0.981,0.868 -4.044,0.972 -6.887,0.263"
           style="fill:#46c1c7;fill-opacity:1;fill-rule:nonzero;stroke:none"
           id="path3756"
           inkscape:connector-curvature="0" /><path
           d="m 200.515,547.125 c 2.987,0.731 4.584,2.104 3.592,3.067 -0.975,0.963 -4.12,1.132 -7.069,0.404 -2.939,-0.733 -4.541,-2.076 -3.601,-3.043 0.948,-0.973 4.098,-1.169 7.078,-0.428"
           style="fill:#77d3f6;fill-opacity:1;fill-rule:nonzero;stroke:none"
           id="path3758"
           inkscape:connector-curvature="0" /><path
           d="m 219.75,508.41 c 1.654,-1.749 6.78,-2.267 11.545,-1.136 4.768,1.137 7.171,3.436 5.433,5.184 -1.729,1.72 -6.842,2.188 -11.515,1.066 -4.663,-1.114 -7.093,-3.377 -5.463,-5.114"
           style="fill:#98def9;fill-opacity:1;fill-rule:nonzero;stroke:none"
           id="path3760"
           inkscape:connector-curvature="0" /><path
           d="m 526.681,227.049 c -9.513,-1.653 -12.156,-8.045 -5.83,-14.491 6.451,-6.599 19.617,-10.625 29.547,-8.978 9.961,1.694 12.354,8.371 5.492,14.96 -6.725,6.432 -19.661,10.159 -29.209,8.509"
           style="fill:#88d7cc;fill-opacity:1;fill-rule:nonzero;stroke:none"
           id="path3762"
           inkscape:connector-curvature="0" /><path
           d="m 257.666,533.623 c -3.274,-0.789 -4.881,-2.315 -3.616,-3.444 1.282,-1.126 4.959,-1.419 8.276,-0.612 3.329,0.796 4.928,2.353 3.604,3.475 -1.314,1.121 -4.989,1.378 -8.264,0.581"
           style="fill:#19b5f1;fill-opacity:1;fill-rule:nonzero;stroke:none"
           id="path3764"
           inkscape:connector-curvature="0" /><path
           d="m 280.178,522.586 c -3.436,-0.82 -5.058,-2.441 -3.647,-3.667 1.419,-1.235 5.358,-1.561 8.847,-0.735 3.494,0.832 5.113,2.487 3.628,3.703 -1.46,1.217 -5.385,1.514 -8.828,0.699"
           style="fill:#19b5f1;fill-opacity:1;fill-rule:nonzero;stroke:none"
           id="path3766"
           inkscape:connector-curvature="0" /><path
           d="m 526.921,359.759 c -7.929,-1.576 -10.108,-6.108 -4.845,-10.289 5.364,-4.255 16.269,-6.437 24.484,-4.847 8.237,1.606 10.262,6.32 4.609,10.545 -5.55,4.152 -16.296,6.157 -24.248,4.591"
           style="fill:#b0e6fa;fill-opacity:1;fill-rule:nonzero;stroke:none"
           id="path3768"
           inkscape:connector-curvature="0" /><path
           d="m 522.578,106.43 c -10.932,-1.645 -13.997,-9.967 -6.799,-18.914 7.395,-9.166 22.571,-15.33 34.052,-13.686 11.524,1.686 14.294,10.496 6.345,19.656 -7.759,8.93 -22.623,14.596 -33.598,12.944"
           style="fill:#b0e6fa;fill-opacity:1;fill-rule:nonzero;stroke:none"
           id="path3770"
           inkscape:connector-curvature="0" /></g></g></g></svg>